<svg xmlns="http://www.w3.org/2000/svg" version="1.1" xmlns:xlink="http://www.w3.org/1999/xlink" xmlns:svgjs="http://svgjs.dev/svgjs" width="128" height="128" viewBox="0 0 128 128"><g transform="matrix(0.8046875,0,0,0.8046875,12.612792253521128,12.612792253521128)"><svg viewBox="0 0 142 142" data-background-color="#ca3433" preserveAspectRatio="xMidYMid meet" height="128" width="128" xmlns="http://www.w3.org/2000/svg" xmlns:xlink="http://www.w3.org/1999/xlink"><g id="tight-bounds" transform="matrix(1,0,0,1,-0.15550000000000352,-0.15550000000000352)"><svg viewBox="0 0 142.31066447748242 142.31066447748242" height="142.31066447748242" width="142.31066447748242"><g><svg></svg></g><g><svg viewBox="0 0 142.31066447748242 142.31066447748242" height="142.31066447748242" width="142.31066447748242"><g><path d="M0 71.155c0-39.298 31.857-71.155 71.155-71.155 39.298 0 71.155 31.857 71.156 71.155 0 39.298-31.857 71.155-71.156 71.156-39.298 0-71.155-31.857-71.155-71.156zM71.155 134.886c35.197 0 63.731-28.533 63.731-63.731 0-35.197-28.533-63.731-63.731-63.73-35.197 0-63.731 28.533-63.73 63.73 0 35.197 28.533 63.731 63.73 63.731z" data-fill-palette-color="tertiary" fill="#f7e1e1" stroke="transparent"></path><ellipse rx="68.30911894919156" ry="68.30911894919156" cx="71.15533223874121" cy="71.15533223874121" fill="#f7e1e1" stroke="transparent" stroke-width="0" fill-opacity="1" data-fill-palette-color="tertiary"></ellipse></g><g transform="matrix(1,0,0,1,40.099130715173956,29.989108276746492)"><svg viewBox="0 0 62.1124030471345 82.33244792398943" height="82.33244792398943" width="62.1124030471345"><g><svg viewBox="0 0 62.1124030471345 82.33244792398943" height="82.33244792398943" width="62.1124030471345"><g><svg viewBox="0 0 62.1124030471345 82.33244792398943" height="82.33244792398943" width="62.1124030471345"><g id="textblocktransform"><svg viewBox="0 0 62.1124030471345 82.33244792398943" height="82.33244792398943" width="62.1124030471345" id="textblock"><g><svg viewBox="0 0 62.1124030471345 82.33244792398943" height="82.33244792398943" width="62.1124030471345"><g transform="matrix(1,0,0,1,0,0)"><svg width="62.1124030471345" viewBox="2.95 -36.25 27.8 36.85" height="82.33244792398943" data-palette-color="#ca3433"><path d="M7.05-36.15L11.3-36.2Q12.4-36.2 12.93-35.98 13.45-35.75 13.75-35.2L13.75-35.2Q14.25-34.15 15-32.5L15-32.5 16.85-28.5 19.2-23.35Q19.85-21.95 20.9-19.65 21.95-17.35 22.4-16.45L22.4-16.45Q23.25-14.7 23.5-14.3L23.5-14.3 24.9-11.55 26.45-8.5 26.35-11.4 26.15-16.3 26.15-17.8Q26.15-20.55 26.25-23.35L26.25-23.35Q26.25-25.45 26.2-26.75L26.2-26.75 26.15-30.55 26.35-35.35Q26.35-36.1 27.1-36.1L27.1-36.1Q27.35-36.1 28.1-35.95L28.1-35.95Q28.55-35.85 29.05-35.85 29.55-35.85 29.85-35.85L29.85-35.85Q30.25-35.85 30.38-35.75 30.5-35.65 30.5-35.4L30.5-35.4Q30.5-35.2 30.45-34.95 30.4-34.7 30.4-34.4L30.4-34.4 30.35-30.1 30.25-20 30.2-18.55Q30.2-16.85 30.25-15.45 30.3-14.05 30.35-13.15L30.35-13.15Q30.5-11 30.5-9.55L30.5-9.55Q30.5-9.75 30.65-3.6L30.65-3.6 30.75-0.8 30.75-0.7Q30.75 0.3 29.8 0.2L29.8 0.2Q29.65 0.15 29.2 0.15L29.2 0.15 27.75 0.2 27.45 0.2Q27.1 0.2 26.93 0.05 26.75-0.1 26.35-0.8L26.35-0.8Q26.2-1.15 25.95-1.8 25.7-2.45 25.35-3.25L25.35-3.25Q23.2-8.65 22.25-10.6L22.25-10.6Q21.15-12.7 16.7-22.65L16.7-22.65Q15.7-24.7 14.45-27L14.45-27 13-29.6 13.15-24.85 13.2-21.9Q13.3-18.6 13.3-17.55L13.3-17.55Q13.3-13.45 13.45-9.3L13.45-9.3 13.5-5.4Q13.5-4.35 13.6-2.35L13.6-2.35 13.7-0.6 13.7-0.5Q13.7 0 13.45 0.15 13.2 0.3 12.75 0.3L12.75 0.3 11.65 0.35Q10.6 0.5 9.4 0.5L9.4 0.5Q8 0.5 7.1 0.55L7.1 0.55 4.55 0.6Q3.8 0.6 3.55 0.33 3.3 0.05 3.25-0.3 3.2-0.65 3.15-0.8L3.15-0.8Q2.95-1.7 2.95-3L2.95-3Q2.95-4.2 3-5.05L3-5.05Q3-7.65 3.1-11.13 3.2-14.6 3.35-16.1L3.35-16.1 3.6-19.65Q4.2-27.95 4.2-29L4.2-29Q4.2-32.95 4.35-34.9L4.35-34.9Q4.45-36.25 5.75-36.25L5.75-36.25Q6.15-36.25 6.5-36.2 6.85-36.15 7.05-36.15L7.05-36.15Z" opacity="1" transform="matrix(1,0,0,1,0,0)" fill="#ca3433" class="wordmark-text-0" data-fill-palette-color="quaternary" id="text-0"></path></svg></g></svg></g></svg></g></svg></g></svg></g></svg></g></svg></g><defs></defs></svg><rect width="142.31066447748242" height="142.31066447748242" fill="none" stroke="none" visibility="hidden"></rect></g></svg></g></svg>